<svg role="img" viewBox="0 0 48 48" xmlns="http://www.w3.org/2000/svg" id="Applepay--Streamline-Simple-Icons" height="48" width="48"><desc>Applepay Streamline Icon: https://streamlinehq.com</desc><title>Apple Pay</title><path d="M4.3 8.636a84.32 84.32 0 0 0 -0.908 0.006c-0.3 0.01 -0.606 0.026 -0.904 0.08a2.88 2.88 0 0 0 -2.12 1.544c-0.14 0.276 -0.228 0.556 -0.28 0.86 -0.056 0.296 -0.074 0.6 -0.08 0.9A20.4 20.4 0 0 0 0 12.444v23.114c0 0.14 0.004 0.276 0.006 0.414 0.008 0.3 0.026 0.606 0.08 0.904 0.054 0.3 0.144 0.582 0.284 0.858a2.872 2.872 0 0 0 1.26 1.26c0.276 0.14 0.556 0.23 0.86 0.284 0.296 0.054 0.6 0.072 0.9 0.08l0.416 0.006h40.388l0.414 -0.006c0.3 -0.008 0.606 -0.026 0.904 -0.08 0.3 -0.054 0.582 -0.142 0.856 -0.282a2.864 2.864 0 0 0 1.262 -1.262c0.14 -0.276 0.23 -0.556 0.282 -0.86 0.054 -0.296 0.072 -0.6 0.08 -0.9 0.004 -0.14 0.006 -0.276 0.006 -0.416l0.002 -0.492V12.442c0 -0.14 -0.004 -0.276 -0.008 -0.414a5.99 5.99 0 0 0 -0.08 -0.904 2.892 2.892 0 0 0 -2.4 -2.402 6.044 6.044 0 0 0 -0.904 -0.08 20.896 20.896 0 0 0 -0.906 -0.006zm0 1.024h39.884c0.132 0 0.262 0.004 0.394 0.006 0.23 0.008 0.5 0.02 0.75 0.064 0.218 0.04 0.4 0.1 0.574 0.188a1.854 1.854 0 0 1 0.814 0.814 1.994 1.994 0 0 1 0.188 0.576c0.044 0.246 0.056 0.516 0.062 0.748 0.004 0.13 0.006 0.26 0.006 0.394v23.104c0 0.13 0 0.26 -0.006 0.392 -0.006 0.23 -0.018 0.5 -0.064 0.75a1.854 1.854 0 0 1 -1 1.386 2.004 2.004 0 0 1 -0.572 0.188 5.196 5.196 0 0 1 -0.746 0.064l-0.4 0.006H3.812c-0.132 0 -0.266 -0.004 -0.392 -0.006a5.22 5.22 0 0 1 -0.75 -0.064c-0.218 -0.04 -0.4 -0.1 -0.576 -0.188a1.836 1.836 0 0 1 -0.812 -0.814 2.012 2.012 0 0 1 -0.188 -0.576 5.062 5.062 0 0 1 -0.064 -0.746 19.176 19.176 0 0 1 -0.004 -0.394V12.448c0 -0.13 0 -0.262 0.004 -0.394 0.008 -0.228 0.02 -0.496 0.064 -0.75 0.04 -0.216 0.1 -0.398 0.188 -0.574a1.85 1.85 0 0 1 0.814 -0.812 2.06 2.06 0 0 1 0.574 -0.188c0.25 -0.044 0.52 -0.058 0.75 -0.064 0.13 -0.004 0.262 -0.004 0.392 -0.006zm9.42 7.4c-0.6 0.032 -1.336 0.398 -1.76 0.912 -0.382 0.44 -0.72 1.16 -0.632 1.836 0.676 0.06 1.35 -0.338 1.776 -0.836 0.41 -0.516 0.69 -1.206 0.616 -1.91zm4.414 0.84v10.986h1.704v-3.754h2.36c2.156 0 3.67 -1.478 3.67 -3.624 0 -2.14 -1.484 -3.61 -3.616 -3.61zm1.704 1.438h1.964c1.478 0 2.322 0.792 2.322 2.178 0 1.384 -0.844 2.184 -2.328 2.184h-1.958zm-6.308 0.6c-0.9 0.02 -1.66 0.56 -2.1 0.56 -0.47 0 -1.186 -0.528 -1.962 -0.514a2.892 2.892 0 0 0 -2.46 1.494c-1.054 1.816 -0.278 4.51 0.748 5.99 0.498 0.732 1.098 1.538 1.888 1.508 0.746 -0.028 1.04 -0.484 1.946 -0.484 0.908 0 1.172 0.484 1.96 0.47 0.82 -0.014 1.334 -0.732 1.83 -1.466 0.572 -0.834 0.806 -1.64 0.82 -1.682 -0.014 -0.016 -1.58 -0.616 -1.594 -2.418 -0.016 -1.508 1.23 -2.226 1.288 -2.27 -0.704 -1.04 -1.8 -1.156 -2.18 -1.186a2.246 2.246 0 0 0 -0.184 -0.004zm16.408 0.794c-1.98 0 -3.212 1.066 -3.304 2.512h1.554c0.144 -0.716 0.738 -1.172 1.69 -1.172 1.004 0 1.606 0.532 1.606 1.422v0.618l-2.194 0.128c-1.902 0.108 -2.976 0.968 -2.976 2.368 0 1.44 1.096 2.414 2.664 2.414 1.052 0 2.064 -0.562 2.528 -1.454h0.038v1.318h1.576v-5.52c0 -1.606 -1.24 -2.634 -3.182 -2.634zm3.88 0.144 2.892 8.018c0 0.006 -0.146 0.48 -0.146 0.494 -0.25 0.82 -0.66 1.142 -1.422 1.142 -0.138 0 -0.412 0 -0.534 -0.03v1.332c0.12 0.022 0.534 0.038 0.67 0.038 1.66 0 2.452 -0.624 3.136 -2.566l3 -8.428h-1.736l-2.024 6.518h-0.03l-2.026 -6.52zm-2.334 4.378v0.632c0 1.042 -0.9 1.834 -2.048 1.834 -0.884 0 -1.462 -0.456 -1.462 -1.158 0 -0.684 0.556 -1.12 1.538 -1.186z" fill="#000000" stroke-width="2"></path></svg>