<svg role="img" viewBox="0 0 48 48" xmlns="http://www.w3.org/2000/svg" id="Kashflow--Streamline-Simple-Icons" height="48" width="48"><desc>Kashflow Streamline Icon: https://streamlinehq.com</desc><title>KashFlow</title><path d="m32.556 4.282 -1.66 5.404C16.014 0.348 5.916 9.448 5.916 9.448 -3.276 17.128 0.98 29.356 0.99 29.356 2.504 -0.032 28.48 17.886 28.48 17.886c-0.474 2.132 -1.992 5.26 -1.944 5.308l17.016 -2.512zm14.456 14.362C45.494 48.032 19.52 30.114 19.52 30.114c0.664 -2.132 2.04 -5.308 2.04 -5.214l-17.02 2.42 10.902 16.4 1.66 -5.404c14.882 9.338 24.98 0.238 24.98 0.238 9.194 -7.68 4.928 -19.908 4.928 -19.908z" fill="#000000" stroke-width="2"></path></svg>