<svg role="img" viewBox="0 0 48 48" xmlns="http://www.w3.org/2000/svg" id="Samsungpay--Streamline-Simple-Icons" height="48" width="48"><desc>Samsungpay Streamline Icon: https://streamlinehq.com</desc><title>Samsung Pay</title><path d="m13.406 34.774 1.234 -3 -2.41 -5.59h1.448l1.634 3.96 1.552 -3.96h1.422l-3.504 8.59Zm-4.984 -2.59c-1.416 0 -2.89 -1.138 -2.89 -3.056 0 -1.95 1.424 -3.062 2.91 -3.062 0.774 0 1.47 0.32 1.892 0.822v-0.704h1.354v5.88h-1.354v-0.764a2.444 2.444 0 0 1 -1.912 0.884Zm-8.412 -0.12v-7.332h2.516c1.518 0 2.64 1.162 2.64 2.61 0 1.456 -1.124 2.624 -2.65 2.624H1.38v2.1zm8.63 -1.124c1.006 0 1.76 -0.814 1.76 -1.828 0 -0.994 -0.754 -1.812 -1.76 -1.812a1.772 1.772 0 0 0 -1.776 1.812c0 1.024 0.772 1.828 1.776 1.828zM1.38 28.696h1.04c0.816 0 1.372 -0.6 1.372 -1.354a1.32 1.32 0 0 0 -1.37 -1.344H1.38Zm1.114 -8.126C1.206 20.57 0 20.11 0 18.58v-0.53h1.84l0.004 0.666c0 0.374 0.26 0.62 0.688 0.62 0.456 0 0.61 -0.234 0.666 -0.464a0.88 0.88 0 0 0 -0.01 -0.504C2.834 17.48 0.396 17.076 0.098 15.674a2.384 2.384 0 0 1 -0.014 -0.926c0.18 -1.12 1.176 -1.52 2.396 -1.52 0.97 0 2.312 0.228 2.312 1.722v0.484h-1.708v-0.426c0 -0.374 -0.24 -0.62 -0.64 -0.62 -0.43 0 -0.578 0.244 -0.626 0.464a0.87 0.87 0 0 0 0.004 0.36c0.196 0.802 2.8 1.23 3.09 2.666 0.028 0.144 0.088 0.532 0.004 1.124 -0.162 1.146 -1.18 1.568 -2.42 1.568zm22.308 -0.036c-1.276 0 -2.468 -0.454 -2.468 -1.968V18.04h1.822v0.656c0 0.37 0.258 0.62 0.682 0.62 0.454 0 0.606 -0.234 0.662 -0.46a0.876 0.876 0 0 0 -0.01 -0.5c-0.35 -0.88 -2.764 -1.282 -3.058 -2.672a2.332 2.332 0 0 1 -0.016 -0.916c0.18 -1.108 1.17 -1.506 2.376 -1.506 0.96 0 2.286 0.23 2.286 1.71v0.48h-1.692v-0.424c0 -0.37 -0.232 -0.614 -0.63 -0.614 -0.424 0 -0.578 0.24 -0.626 0.46a0.87 0.87 0 0 0 0.01 0.352c0.192 0.796 2.77 1.22 3.058 2.64 0.03 0.146 0.088 0.53 0.006 1.116 -0.162 1.134 -1.172 1.552 -2.4 1.552zm6.448 -0.026c-1.26 0 -2.276 -0.42 -2.396 -1.7a5.584 5.584 0 0 1 -0.016 -0.446V13.44h1.734v5.076c0 0.088 0 0.186 0.016 0.26 0.034 0.17 0.184 0.496 0.662 0.496 0.476 0 0.622 -0.326 0.656 -0.496a1.436 1.436 0 0 0 0.016 -0.26V13.44h1.734v4.922a5.88 5.88 0 0 1 -0.016 0.448c-0.12 1.28 -1.128 1.698 -2.39 1.698zm14.312 -0.074c-1.216 0 -2.296 -0.442 -2.41 -1.692a5.036 5.036 0 0 1 -0.028 -0.454V15.404c0 -0.122 0.018 -0.34 0.032 -0.454 0.154 -1.282 1.19 -1.692 2.406 -1.692 1.216 0 2.28 0.406 2.406 1.692 0.022 0.22 0.016 0.454 0.016 0.454v0.228h-1.728v-0.386s0 -0.16 -0.02 -0.26c-0.032 -0.15 -0.164 -0.5 -0.69 -0.5 -0.498 0 -0.644 0.332 -0.68 0.5a1.632 1.632 0 0 0 -0.028 0.324v3.134a1.78 1.78 0 0 0 0.016 0.26c0.032 0.184 0.208 0.5 0.704 0.5s0.666 -0.316 0.698 -0.5a1.444 1.444 0 0 0 0.016 -0.26v-0.994h-0.704v-1H48v1.84c0 0.128 -0.006 0.224 -0.026 0.452 -0.114 1.25 -1.196 1.692 -2.412 1.692zm-39.49 -0.13 1.272 -6.864h3.052l1.266 6.864h-1.844l-0.912 -6.228 -0.04 0.004 -0.94 6.224Zm6.96 0L13.18 13.44h2.8l0.842 5.25h0.042l0.844 -5.25h2.798l0.15 6.864h-1.714l-0.04 -6.166H18.86l-1.146 6.166h-1.74L14.828 14.14h-0.036l-0.042 6.166Zm22.536 -0.072V13.44h2.546l1.58 5.386h0.036l-0.094 -5.386h1.702v6.792h-2.442l-1.698 -5.574h-0.036l0.094 5.574z" fill="#000000" stroke-width="2"></path></svg>