<svg role="img" viewBox="0 0 48 48" xmlns="http://www.w3.org/2000/svg" id="Mastercard--Streamline-Simple-Icons" height="48" width="48"><desc>Mastercard Streamline Icon: https://streamlinehq.com</desc><title>MasterCard</title><path d="M22.686 36.062c0.116 0.098 0.24 0.196 0.362 0.292 -2.354 1.566 -5.18 2.476 -8.214 2.476C6.64 38.832 0 32.192 0 24c0 -8.19 6.64 -14.832 14.832 -14.832 3.036 0 5.862 0.912 8.21 2.476 -0.12 0.102 -0.24 0.196 -0.33 0.3C19.2 14.978 17.19 19.376 17.19 24c0 4.622 2.002 9.02 5.496 12.062zm10.482 -26.894c-3.04 0 -5.862 0.912 -8.21 2.476 0.12 0.102 0.24 0.196 0.33 0.3C28.8 14.978 30.81 19.376 30.81 24c0 4.62 -2.002 9.014 -5.496 12.062 -0.116 0.098 -0.24 0.196 -0.362 0.292 2.354 1.566 5.176 2.476 8.214 2.476C41.36 38.832 48 32.192 48 24c0 -8.188 -6.64 -14.832 -14.832 -14.832zM24 12.348c-0.192 0.15 -0.378 0.3 -0.56 0.462C20.312 15.528 18.338 19.53 18.338 24c0 4.472 1.974 8.472 5.102 11.19 0.18 0.16 0.37 0.316 0.56 0.464 0.192 -0.148 0.378 -0.304 0.56 -0.464 3.126 -2.718 5.102 -6.718 5.102 -11.19 0 -4.47 -1.974 -8.472 -5.102 -11.19 -0.18 -0.16 -0.368 -0.312 -0.56 -0.462z" fill="#000000" stroke-width="2"></path></svg>