<svg role="img" viewBox="0 0 48 48" xmlns="http://www.w3.org/2000/svg" id="Paypal--Streamline-Simple-Icons" height="48" width="48"><desc>Paypal Streamline Icon: https://streamlinehq.com</desc><title>PayPal</title><path d="M14.032 38.396h-8.4a1.124 1.124 0 0 1 -1.11 -1.3L10.186 1.168A1.384 1.384 0 0 1 11.552 0h14.444c6.834 0 11.808 4.976 11.692 11 -0.012 0.5 -0.054 1 -0.132 1.494A13.588 13.588 0 0 1 24.142 24H17.486a1.38 1.38 0 0 0 -1.364 1.166l-0.65 4.112 -0.026 0.166 -1.384 8.78 -0.03 0.174zM39.58 12.284c-0.02 0.174 -0.02 0.35 -0.046 0.522a15.52 15.52 0 0 1 -15.39 13.196H18.014l-0.566 3.59 -0.026 0.166 -1.384 8.78 -0.268 1.686 -0.028 0.176H13.72l-0.994 6.3a1.124 1.124 0 0 0 1.11 1.3h7.224c0.68 0 1.26 -0.498 1.366 -1.17l1.904 -12.062a1.384 1.384 0 0 1 1.366 -1.168h4.252a13.586 13.586 0 0 0 13.414 -11.504c0.612 -3.9 -0.932 -7.488 -3.78 -9.812z" fill="#000000" stroke-width="2"></path></svg>