<svg role="img" viewBox="0 0 48 48" xmlns="http://www.w3.org/2000/svg" id="Zoiper--Streamline-Simple-Icons" height="48" width="48"><desc>Zoiper Streamline Icon: https://streamlinehq.com</desc><title>Zoiper</title><path d="M6.7502 26.1572c-1.7248 -1.7248 -1.7248 -5.8512 -0.1496 -7.4262s6.525 -6.45 10.1242 -10.0494c3.6008 -3.5992 6.751 -4.1248 7.7258 -4.1248H31.8c0.4446 0 1.1054 0.0644 1.8472 0.1768l-2.174 4.3328c-1.7476 -0.1258 -3.3622 -0.0844 -4.548 -0.0844 -4.8748 0 -5.2508 1.1244 -6.0756 1.9494 -0.825 0.825 -10.1242 9.675 -10.7994 10.3504 -2.1008 2.1006 1.1242 3.0752 4.6504 3.0752 1.575 0 1.7996 1.65 1.4238 3.1502 -0.2036 0.8158 -0.7368 2.86 -1.1838 5.057h-4.278c0.1668 -0.8474 0.3296 -1.5424 0.4368 -1.908 0.376 -1.274 0.4506 -2.4 -0.2994 -2.4s-2.3252 -0.3742 -4.0498 -2.099zm36.085 -19.839c-0.393 -0.393 -4.368 -2.6994 -5.5452 -3.2402 -0.3228 -0.1478 -0.5986 -0.2094 -0.8344 -0.2094 -0.6252 0 -0.9706 0.4324 -1.1744 0.8386l-6.2358 12.4272c-3.128 0.8946 -5.4208 3.7744 -5.4208 7.19 0 2.871 1.6176 5.363 3.992 6.6182 -0.915 1.087 -2.2674 2.201 -2.5838 2.5702 -0.4508 0.5256 -1.575 1.0512 -3.526 1.0512H8.7344c-0.0596 -2.3608 -1.9902 -4.2574 -4.3664 -4.2574 -2.412 0 -4.368 1.956 -4.368 4.368 0 2.4136 1.956 4.3698 4.368 4.3698 1.837 0 3.4072 -1.1328 4.0534 -2.7386h14.0788c1.9494 0 3.0754 -0.524 3.5244 -1.0496 0.4268 -0.4982 2.7316 -2.3456 3.3168 -3.6622 0.5648 0.1378 1.1568 0.2126 1.7656 0.2126 4.1318 0 7.4808 -3.3492 7.4808 -7.4824a7.4576 7.4576 0 0 0 -1.0632 -3.8442 14013.0704 14013.0704 0 0 1 5.506 -11.1004c0.541 -1.0798 0.1976 -1.6684 -0.1954 -2.0614zm0.5734 3.5484c-0.4754 0.9572 -1.2036 2.4256 -1.986 4.0028 1.394 2.0122 2.3032 4.8238 2.3032 8.8376 0 10.199 -5.4006 11.325 -6.525 11.325h-4.2762c-0.8998 0 -1.575 0.1496 -3.225 1.7996 -1.65 1.65 -3.975 3.674 -4.6504 4.3492 -0.6736 0.6752 -1.65 1.126 -3.3746 1.126h-5.324c-0.7502 0 -2.1006 -0.376 -2.1006 -3.5262 0 -0.442 0.0424 -0.9498 0.0976 -1.4748H10.1182c-0.1162 1.2818 -0.1498 2.5552 0.0068 3.5744 0.4506 2.9256 2.8508 5.2508 4.8748 5.2508h7.9504c3.6756 0 10.4252 -6.8242 10.4252 -6.8242s2.2146 0.1362 3.526 0.1004C40.975 38.297 48 34.9324 48 23.6824c0 -6.6288 -1.9904 -10.955 -4.5914 -13.8158z" fill="#000000" stroke-width="2"></path></svg>