<svg role="img" viewBox="0 0 48 48" xmlns="http://www.w3.org/2000/svg" id="Visa--Streamline-Simple-Icons" height="48" width="48"><desc>Visa Streamline Icon: https://streamlinehq.com</desc><title>Visa</title><path d="M18.224 16.524 11.94 31.516H7.84L4.748 19.55c-0.188 -0.736 -0.35 -1.006 -0.922 -1.316C2.894 17.728 1.354 17.254 0 16.958l0.092 -0.434h6.6a1.808 1.808 0 0 1 1.788 1.528l1.634 8.676 4.036 -10.204zm16.066 10.098c0.016 -3.958 -5.472 -4.176 -5.434 -5.944 0.012 -0.538 0.524 -1.11 1.644 -1.256a7.32 7.32 0 0 1 3.826 0.672l0.68 -3.18a10.414 10.414 0 0 0 -3.628 -0.666c-3.834 0 -6.532 2.04 -6.556 4.958 -0.024 2.158 1.926 3.36 3.396 4.08 1.512 0.734 2.02 1.206 2.012 1.862 -0.01 1.008 -1.204 1.45 -2.32 1.468 -1.95 0.03 -3.08 -0.526 -3.984 -0.946l-0.702 3.284c0.906 0.416 2.578 0.78 4.312 0.796 4.074 0 6.74 -2.012 6.754 -5.128m10.122 4.894H48l-3.13 -14.992h-3.312a1.766 1.766 0 0 0 -1.652 1.1l-5.818 13.892h4.072l0.81 -2.24h4.976zm-4.326 -5.312 2.04 -5.63 1.176 5.63zm-16.32 -9.68 -3.206 14.992H16.68l3.21 -14.992z" fill="#000000" stroke-width="2"></path></svg>